<?xml version="1.0" encoding="UTF-8"?>
<svg width="315px" height="151px" viewBox="0 0 315 151" version="1.1" xmlns="http://www.w3.org/2000/svg" xmlns:xlink="http://www.w3.org/1999/xlink">
    <!-- Generator: Sketch 50.2 (55047) - http://www.bohemiancoding.com/sketch -->
    <title>blackboardAlly</title>
    <desc>Created with Sketch.</desc>
    <defs>
        <polygon id="path-1" points="0.455468023 105.951387 121.998401 105.951387 121.998401 0.59679859 0.455468023 0.59679859"></polygon>
    </defs>
    <g id="ally4web" stroke="none" stroke-width="1" fill="none" fill-rule="evenodd">
        <g id="1280-ally2017-features" transform="translate(-483.000000, -133.000000)">
            <g id="blackboardAlly" transform="translate(483.000000, 133.000000)">
                <g id="allyLogo" transform="translate(0.000000, 44.160377)">
                    <g id="Group-3" transform="translate(192.296512, 0.596564)">
                        <mask id="mask-2" fill="white">
                            <use xlink:href="#path-1"></use>
                        </mask>
                        <g id="Clip-2"></g>
                        <path d="M61.2284913,0.59679859 C53.2381134,0.59679859 46.760468,7.05800647 46.760468,15.0281082 C46.760468,23.0000368 53.2381134,29.4612447 61.2284913,29.4612447 C69.2188692,29.4612447 75.6965145,23.0000368 75.6965145,15.0281082 C75.6965145,7.05800647 69.2188692,0.59679859 61.2284913,0.59679859 L61.2284913,0.59679859 Z M93.0599738,15.0281082 C93.0599738,32.5630629 78.8080552,46.7788162 61.2284913,46.7788162 C43.6452645,46.7788162 29.3970087,32.5630629 29.3970087,15.0281082 L0.455468023,15.0281082 L46.760468,84.3020481 L46.760468,105.952666 L75.6965145,105.952666 L75.6965145,84.3020481 L121.999683,15.0281082 L93.0599738,15.0281082 Z" id="Fill-1" fill="#00C7D1" mask="url(#mask-2)"></path>
                    </g>
                    <g id="Group-6" transform="translate(0.000000, 15.470315)" fill="#FFFFFF">
                        <path d="M0.000183139535,91.0785493 L29.7768401,91.0785493 C35.1574797,79.1663252 47.1677703,70.8710623 61.1193401,70.8710623 C75.0709099,70.8710623 87.0793692,79.1663252 92.4600087,91.0785493 L121.526084,91.0785493 L60.7567238,0.155818257 L0.000183139535,91.0785493 Z M46.2868692,49.2240978 C46.2868692,41.2539961 52.7663459,34.7927882 60.7567238,34.7927882 C68.7471017,34.7927882 75.2247471,41.2539961 75.2247471,49.2240978 C75.2247471,57.1941996 68.7471017,63.6554075 60.7567238,63.6554075 C52.7663459,63.6554075 46.2868692,57.1941996 46.2868692,49.2240978 L46.2868692,49.2240978 Z" id="Fill-4"></path>
                    </g>
                    <polygon id="Fill-7" fill="#70CF00" points="121.527733 106.547951 150.46561 106.547951 150.46561 15.6252202 121.527733 15.6252202"></polygon>
                    <polygon id="Fill-9" fill="#70CF00" points="163.810988 106.547951 192.750698 106.547951 192.750698 15.6252202 163.810988 15.6252202"></polygon>
                </g>
                <g id="Blackboard" transform="translate(92.610114, 0.019400)" fill="#FFFFFF">
                    <path d="M13.9350309,5.5947554 C13.9350309,7.74478333 12.7324723,8.84839705 11.4287167,9.51796756 C13.4813307,10.2195025 14.9115826,11.3954567 14.9115826,13.7944707 C14.9115826,16.9471721 12.3310573,18.6210984 8.42147701,18.6210984 L0.300411887,18.6210984 L0.300411887,1.11805404 L8.16679771,1.11805404 C11.705322,1.11805404 13.9350309,2.8441328 13.9350309,5.5947554 M10.85358,6.09609212 C10.85358,4.66778717 9.74884529,3.84175922 7.76875589,3.84175922 L3.33295085,3.84175922 L3.33295085,8.49510607 L7.54443571,8.49510607 C9.52115187,8.49510607 10.85358,7.7212306 10.85358,6.09609212 M11.8318184,13.4680971 C11.8318184,11.9708163 10.6528725,11.0960006 8.22076948,11.0960006 L3.33295085,11.0960006 L3.33295085,15.8957108 L8.44340304,15.8957108 C10.5516754,15.8957108 11.8318184,15.0696829 11.8318184,13.4680971" id="Fill-10"></path>
                    <polygon id="Fill-11" points="16.9663892 18.6216031 19.9989282 18.6216031 19.9989282 0.371600678 16.9663892 0.371600678"></polygon>
                    <path d="M30.8028964,18.6214348 L30.8028964,16.994614 C29.8988692,18.069628 28.5192157,18.8956559 26.5155137,18.8956559 C24.0075129,18.8956559 21.8047899,17.467351 21.8047899,14.819351 L21.8047899,14.7688809 C21.8047899,11.9240473 24.0850973,10.5226598 27.1665482,10.5226598 C28.7722084,10.5226598 29.7976721,10.7447284 30.8281956,11.0694196 L30.8281956,10.7447284 C30.8281956,8.91770937 29.6728624,7.92344763 27.5662766,7.92344763 C26.090486,7.92344763 24.9874379,8.24140951 23.7848793,8.74274622 L22.9550633,6.32017953 C24.4123012,5.66911474 25.8408665,5.2199305 27.9963642,5.2199305 C31.9042578,5.2199305 33.8084494,7.26901815 33.8084494,10.7951986 L33.8084494,18.6214348 L30.8028964,18.6214348 Z M30.8754209,13.0192494 C30.1012633,12.7214755 29.0218279,12.4960423 27.8445686,12.4960423 C25.940377,12.4960423 24.8120296,13.2716001 24.8120296,14.6208351 L24.8120296,14.6713053 C24.8120296,15.9196 25.940377,16.621135 27.3689423,16.621135 C29.3726444,16.621135 30.8754209,15.4956509 30.8754209,13.8419126 L30.8754209,13.0192494 Z" id="Fill-12"></path>
                    <path d="M42.2813431,18.9203863 C38.3447769,18.9203863 35.4404209,15.8433901 35.4404209,12.0715884 C35.4404209,8.29642196 38.3447769,5.14540292 42.3049557,5.14540292 C44.8129565,5.14540292 46.3663316,6.06900647 47.5925028,7.42160621 L45.7119238,9.44209412 C44.784284,8.46802043 43.8077322,7.79172056 42.2813431,7.79172056 C40.0735602,7.79172056 38.4695866,9.69612715 38.4695866,12.0211182 C38.4695866,14.3982618 40.0988595,16.2942567 42.4297654,16.2942567 C43.8566442,16.2942567 44.9141536,15.6196392 45.8654061,14.6455655 L47.6936998,16.4439848 C46.3916308,17.8941601 44.8601818,18.9203863 42.2813431,18.9203863" id="Fill-13"></path>
                    <polygon id="Fill-14" points="61.6017196 18.6214348 58.095241 18.6214348 54.109763 12.9183091 52.2561699 14.8462684 52.2561699 18.6214348 49.2236309 18.6214348 49.2236309 0.369750106 52.2561699 0.369750106 52.2561699 11.2696179 57.7427379 5.42012872 61.4263113 5.42012872 56.1640635 10.7951986"></polygon>
                    <path d="M70.7529709,18.8956559 C68.572174,18.8956559 67.1925206,17.7954069 66.2665674,16.5689825 L66.2665674,18.6214348 L63.2323418,18.6214348 L63.2323418,0.369750106 L66.2665674,0.369750106 L66.2665674,7.62062679 C67.2431191,6.24279199 68.6177127,5.14590763 70.7529709,5.14590763 C73.8850203,5.14590763 76.9192459,7.62062679 76.9192459,12.0199406 C76.9192459,16.4192544 73.9103196,18.8956559 70.7529709,18.8956559 M70.0513379,7.76867253 C67.9953507,7.76867253 66.1906695,9.44428116 66.1906695,12.0199406 C66.1906695,14.5939177 67.9953507,16.2695263 70.0513379,16.2695263 C72.1292511,16.2695263 73.8344218,14.6460702 73.8344218,12.0199406 C73.8344218,9.42072843 72.1056385,7.76867253 70.0513379,7.76867253" id="Fill-15"></path>
                    <path d="M85.0645983,18.9203863 C81.0285217,18.9203863 78.0465813,15.8433901 78.0465813,12.0715884 C78.0465813,8.27118689 81.053821,5.14540292 85.1118236,5.14540292 C89.1748861,5.14540292 92.1568266,8.22071675 92.1568266,12.0211182 C92.1568266,15.7962847 89.1479002,18.9203863 85.0645983,18.9203863 M85.0645983,7.79172056 C82.6324954,7.79172056 81.0774337,9.69612715 81.0774337,12.0211182 C81.0774337,14.3713444 82.7539318,16.2942567 85.1118236,16.2942567 C87.5675393,16.2942567 89.122601,14.3982618 89.122601,12.0715884 C89.122601,9.71967989 87.4427296,7.79172056 85.0645983,7.79172056" id="Fill-16"></path>
                    <path d="M102.078862,18.6214348 L102.078862,16.994614 C101.179895,18.069628 99.8019281,18.8956559 97.7931662,18.8956559 C95.2902253,18.8956559 93.0807558,17.467351 93.0807558,14.819351 L93.0807558,14.7688809 C93.0807558,11.9240473 95.3661231,10.5226598 98.447574,10.5226598 C100.049861,10.5226598 101.078698,10.7447284 102.109221,11.0694196 L102.109221,10.7447284 C102.109221,8.91770937 100.953888,7.92344763 98.8473024,7.92344763 C97.3715117,7.92344763 96.2650904,8.24140951 95.0625319,8.74274622 L94.2360891,6.32017953 C95.6899537,5.66911474 97.1185191,5.2199305 99.2740167,5.2199305 C103.185284,5.2199305 105.089475,7.26901815 105.089475,10.7951986 L105.089475,18.6214348 L102.078862,18.6214348 Z M102.156447,13.0192494 C101.380602,12.7214755 100.301167,12.4960423 99.1222211,12.4960423 C97.2163429,12.4960423 96.0913688,13.2716001 96.0913688,14.6208351 L96.0913688,14.6713053 C96.0913688,15.9196 97.2163429,16.621135 98.6449082,16.621135 C100.650297,16.621135 102.156447,15.4956509 102.156447,13.8419126 L102.156447,13.0192494 Z" id="Fill-17"></path>
                    <path d="M110.475858,18.6214348 L107.446692,18.6214348 L107.446692,5.42012872 L110.475858,5.42012872 L110.475858,8.3961846 C111.302301,6.42280215 112.832063,5.07020242 115.164656,5.17282503 L115.164656,8.37094953 L114.987561,8.37094953 C112.336198,8.37094953 110.475858,10.095346 110.475858,13.594609 L110.475858,18.6214348 Z" id="Fill-18"></path>
                    <path d="M126.144538,18.6214348 L126.144538,16.4192544 C125.167986,17.7954069 123.788333,18.8956559 121.632835,18.8956559 C118.521025,18.8956559 115.493546,16.4192544 115.493546,12.0216229 C115.493546,7.61894445 118.472113,5.14590763 121.632835,5.14590763 C123.810259,5.14590763 125.193286,6.24447433 126.144538,7.46753404 L126.144538,0.369750106 L129.175391,0.369750106 L129.175391,18.6214348 L126.144538,18.6214348 Z M122.359768,7.76867253 C120.276795,7.76867253 118.548011,9.37025829 118.548011,12.0216229 C118.548011,14.6208351 120.305467,16.2695263 122.359768,16.2695263 C124.385396,16.2695263 126.191764,14.5939177 126.191764,12.0216229 C126.191764,9.44428116 124.385396,7.76867253 122.359768,7.76867253 L122.359768,7.76867253 Z" id="Fill-19"></path>
                    <path d="M132.802125,1.43652062 C132.802125,2.02702125 132.326499,2.50480523 131.734496,2.50480523 C131.14418,2.50480523 130.66518,2.02702125 130.66518,1.43652062 C130.66518,0.847702325 131.14418,0.36991834 131.734496,0.36991834 C132.326499,0.36991834 132.802125,0.847702325 132.802125,1.43652062 L132.802125,1.43652062 Z M130.877694,1.43652062 C130.877694,1.91262227 131.26393,2.30460701 131.734496,2.30460701 C132.205062,2.30460701 132.591298,1.91262227 132.591298,1.43652062 C132.591298,0.957054294 132.210122,0.571798897 131.734496,0.571798897 C131.257183,0.571798897 130.877694,0.957054294 130.877694,1.43652062 L130.877694,1.43652062 Z M131.805334,0.874619733 C132.086999,0.874619733 132.210122,0.978924688 132.210122,1.21613434 C132.210122,1.33053333 132.17639,1.39782684 132.086999,1.46512036 C132.173017,1.5155905 132.18145,1.54250791 132.191569,1.75280016 C132.201689,1.95972773 132.203376,1.96141007 132.274214,2.01019787 L131.957129,2.01019787 C131.930144,1.94122201 131.923397,1.91766928 131.92171,1.81841134 C131.914964,1.58961337 131.908218,1.57783701 131.756422,1.57783701 L131.567521,1.57783701 L131.567521,2.01019787 L131.299348,2.01019787 L131.299348,0.874619733 L131.805334,0.874619733 Z M131.567521,1.35408606 L131.763168,1.35408606 C131.906531,1.35408606 131.945323,1.32716865 131.945323,1.23127538 C131.945323,1.13369978 131.908218,1.11014705 131.763168,1.11014705 L131.567521,1.11014705 L131.567521,1.35408606 Z" id="Fill-20"></path>
                </g>
            </g>
        </g>
    </g>
</svg>