<?xml version="1.0" encoding="UTF-8"?>
<svg width="49px" height="63px" viewBox="0 0 49 63" version="1.1" xmlns="http://www.w3.org/2000/svg" xmlns:xlink="http://www.w3.org/1999/xlink">
    <!-- Generator: Sketch 52.6 (67491) - http://www.bohemiancoding.com/sketch -->
    <title>icon-file-braille</title>
    <desc>Created with Sketch.</desc>
    <g id="home" stroke="none" stroke-width="1" fill="none" fill-rule="evenodd">
        <g id="1440-ally.ac-courses-he-general" transform="translate(-702.000000, -2860.000000)" fill="#222222">
            <g id="icon-fileBraille" transform="translate(702.000000, 2859.000000)">
                <path d="M30.2262368,1.6851458 L48.3619789,20.1133999 L48.3619789,56.9699079 C48.3619789,60.3484212 45.6416176,63.1126593 42.3167315,63.1126593 L6.01502112,63.1126593 C2.69013507,63.1126593 2.66453526e-14,60.3484212 2.66453526e-14,56.9699079 L0.0302262368,7.82789715 C0.0302262368,4.44938391 2.72036131,1.6851458 6.04524736,1.6851458 L30.2262368,1.6851458 Z M27.2036131,23.1847755 L43.8280434,23.1847755 L27.2036131,6.29220932 L27.2036131,23.1847755 Z M16.9266926,35.7774158 C19.430716,35.7774158 21.4606281,33.7147632 21.4606281,31.1703523 C21.4606281,28.6259414 19.430716,26.5632888 16.9266926,26.5632888 C14.4226692,26.5632888 12.3927571,28.6259414 12.3927571,31.1703523 C12.3927571,33.7147632 14.4226692,35.7774158 16.9266926,35.7774158 Z M16.9266926,46.8343682 C19.430716,46.8343682 21.4606281,44.7717156 21.4606281,42.2273047 C21.4606281,39.6828938 19.430716,37.6202412 16.9266926,37.6202412 C14.4226692,37.6202412 12.3927571,39.6828938 12.3927571,42.2273047 C12.3927571,44.7717156 14.4226692,46.8343682 16.9266926,46.8343682 Z M31.2841551,55.4342201 C32.5361668,55.4342201 33.5511228,54.4028938 33.5511228,53.1306883 C33.5511228,51.8584829 32.5361668,50.8271566 31.2841551,50.8271566 C30.0321434,50.8271566 29.0171873,51.8584829 29.0171873,53.1306883 C29.0171873,54.4028938 30.0321434,55.4342201 31.2841551,55.4342201 Z M16.7755614,55.4342201 C18.0275731,55.4342201 19.0425292,54.4028938 19.0425292,53.1306883 C19.0425292,51.8584829 18.0275731,50.8271566 16.7755614,50.8271566 C15.5235497,50.8271566 14.5085937,51.8584829 14.5085937,53.1306883 C14.5085937,54.4028938 15.5235497,55.4342201 16.7755614,55.4342201 Z M31.2841551,44.6844052 C32.5361668,44.6844052 33.5511228,43.6530789 33.5511228,42.3808735 C33.5511228,41.108668 32.5361668,40.0773417 31.2841551,40.0773417 C30.0321434,40.0773417 29.0171873,41.108668 29.0171873,42.3808735 C29.0171873,43.6530789 30.0321434,44.6844052 31.2841551,44.6844052 Z M31.2841551,33.6274528 C32.5361668,33.6274528 33.5511228,32.5961265 33.5511228,31.3239211 C33.5511228,30.0517156 32.5361668,29.0203893 31.2841551,29.0203893 C30.0321434,29.0203893 29.0171873,30.0517156 29.0171873,31.3239211 C29.0171873,32.5961265 30.0321434,33.6274528 31.2841551,33.6274528 Z" id="fileBraille"></path>
            </g>
        </g>
    </g>
</svg>