<?xml version="1.0" encoding="UTF-8"?>
<svg width="64px" height="66px" viewBox="0 0 64 66" version="1.1" xmlns="http://www.w3.org/2000/svg" xmlns:xlink="http://www.w3.org/1999/xlink">
    <!-- Generator: Sketch 52.6 (67491) - http://www.bohemiancoding.com/sketch -->
    <title>icon-all-students</title>
    <desc>Created with Sketch.</desc>
    <g id="home" stroke="none" stroke-width="1" fill="none" fill-rule="evenodd">
        <g id="1440-ally.ac-courses-he-general" transform="translate(-365.000000, -1566.000000)" fill="#121519">
            <g id="featureAbout" transform="translate(365.000000, 565.000000)">
                <g id="04" transform="translate(0.000000, 1001.000000)">
                    <path d="M8.8722505,12.0081515 L12.5790765,5.83133837 L12.5790765,5.74552704 L12.6305735,5.74552704 L12.6677719,5.68354204 L12.7894244,5.74552704 L16.0310605,5.74552704 L19.4830446,5.74552704 L19.4830446,5.76500491 L19.5301622,5.74099731 L23.4086625,12.2038774 L23.1651609,12.3279477 L23.1651609,12.0081515 L20.6173386,12.0081515 L19.4830446,10.118038 L19.4830446,12.0081515 L12.5790765,12.0081515 L12.5790765,10.2868927 L11.5461155,12.0081515 L8.8722505,12.0081515 Z M18.3323833,2.29821082 C18.3323833,3.56222677 17.296788,4.59642164 16.0310605,4.59642164 C14.7653331,4.59642164 13.7297378,3.56222677 13.7297378,2.29821082 C13.7297378,1.03419487 14.7653331,-5.41788836e-14 16.0310605,-5.41788836e-14 C17.296788,-5.41788836e-14 18.3323833,1.03419487 18.3323833,2.29821082 Z M8.78189402,13.1572569 L23.1651609,13.1572569 L23.1651609,15.3980125 L8.78189402,15.3980125 L8.78189402,13.1572569 Z M24.6505561,12.0081515 L28.3573821,5.83133837 L28.3573821,5.74552704 L28.4088791,5.74552704 L28.4460775,5.68354204 L28.56773,5.74552704 L31.8093661,5.74552704 L35.2613502,5.74552704 L35.2613502,5.76500491 L35.3084678,5.74099731 L39.1869681,12.2038774 L38.9434665,12.3279477 L38.9434665,12.0081515 L36.3956441,12.0081515 L35.2613502,10.118038 L35.2613502,12.0081515 L28.3573821,12.0081515 L28.3573821,10.2868927 L27.3244211,12.0081515 L24.6505561,12.0081515 Z M34.1106888,2.29821082 C34.1106888,3.56222677 33.0750936,4.59642164 31.8093661,4.59642164 C30.5436386,4.59642164 29.5080434,3.56222677 29.5080434,2.29821082 C29.5080434,1.03419487 30.5436386,-5.41788836e-14 31.8093661,-5.41788836e-14 C33.0750936,-5.41788836e-14 34.1106888,1.03419487 34.1106888,2.29821082 Z M24.5601996,13.1572569 L38.9434665,13.1572569 L38.9434665,15.3980125 L24.5601996,15.3980125 L24.5601996,13.1572569 Z M39.2151459,12.0081515 L42.9219718,5.83133837 L42.9219718,5.74552704 L42.9734689,5.74552704 L43.0106673,5.68354204 L43.1323197,5.74552704 L46.3739559,5.74552704 L49.82594,5.74552704 L49.82594,5.76500491 L49.8730575,5.74099731 L53.7515579,12.2038774 L53.5080563,12.3279477 L53.5080563,12.0081515 L50.9602339,12.0081515 L49.82594,10.118038 L49.82594,12.0081515 L42.9219718,12.0081515 L42.9219718,10.2868927 L41.8890109,12.0081515 L39.2151459,12.0081515 Z M48.6752786,2.29821082 C48.6752786,3.56222677 47.6396834,4.59642164 46.3739559,4.59642164 C45.1082284,4.59642164 44.0726332,3.56222677 44.0726332,2.29821082 C44.0726332,1.03419487 45.1082284,-5.41788836e-14 46.3739559,-5.41788836e-14 C47.6396834,-5.41788836e-14 48.6752786,1.03419487 48.6752786,2.29821082 Z M39.1247894,13.1572569 L53.5080563,13.1572569 L53.5080563,15.3980125 L39.1247894,15.3980125 L39.1247894,13.1572569 Z M3.23119148,35.3391591 L7.86061734,27.6237345 L7.86061734,27.5189907 L7.92346595,27.5189907 L7.97251186,27.4372505 L8.13293596,27.5189907 L12.1755974,27.5189907 L16.4905775,27.5189907 L16.4905775,27.5384823 L16.5484493,27.5089952 L21.3959726,35.5879021 L21.0932229,35.7421608 L21.0932229,35.3391591 L17.9079803,35.3391591 L16.4905775,32.9769084 L16.4905775,35.3391591 L7.86061734,35.3391591 L7.86061734,33.1880971 L6.56993243,35.3391591 L3.23119148,35.3391591 Z M15.0522508,23.2143108 C15.0522508,24.7926934 13.7577568,26.0840974 12.1755974,26.0840974 C10.5934381,26.0840974 9.29894403,24.7926934 9.29894403,23.2143108 C9.29894403,21.6359282 10.5934381,20.3445243 12.1755974,20.3445243 C13.7577568,20.3445243 15.0522508,21.6359282 15.0522508,23.2143108 Z M3.11413926,36.7740523 L21.0932229,36.7740523 L21.0932229,39.5720942 L3.11413926,39.5720942 L3.11413926,36.7740523 Z M22.9540735,35.3391591 L27.5834993,27.6237345 L27.5834993,27.5189907 L27.6463479,27.5189907 L27.6953938,27.4372505 L27.8558179,27.5189907 L31.8984794,27.5189907 L36.2134595,27.5189907 L36.2134595,27.5384823 L36.2713312,27.5089952 L41.1188546,35.5879021 L40.8161049,35.7421608 L40.8161049,35.3391591 L37.6308623,35.3391591 L36.2134595,32.9769084 L36.2134595,35.3391591 L27.5834993,35.3391591 L27.5834993,33.1880971 L26.2928144,35.3391591 L22.9540735,35.3391591 Z M34.7751328,23.2143108 C34.7751328,24.7926934 33.4806387,26.0840974 31.8984794,26.0840974 C30.31632,26.0840974 29.021826,24.7926934 29.021826,23.2143108 C29.021826,21.6359282 30.31632,20.3445243 31.8984794,20.3445243 C33.4806387,20.3445243 34.7751328,21.6359282 34.7751328,23.2143108 Z M22.8370212,36.7740523 L40.8161049,36.7740523 L40.8161049,39.5720942 L22.8370212,39.5720942 L22.8370212,36.7740523 Z M41.1598107,35.3391591 L45.7892365,27.6237345 L45.7892365,27.5189907 L45.8520851,27.5189907 L45.901131,27.4372505 L46.0615551,27.5189907 L50.1042166,27.5189907 L54.4191967,27.5189907 L54.4191967,27.5384823 L54.4770684,27.5089952 L59.3245918,35.5879021 L59.0218421,35.7421608 L59.0218421,35.3391591 L55.8365995,35.3391591 L54.4191967,32.9769084 L54.4191967,35.3391591 L45.7892365,35.3391591 L45.7892365,33.1880971 L44.4985516,35.3391591 L41.1598107,35.3391591 Z M52.98087,23.2143108 C52.98087,24.7926934 51.686376,26.0840974 50.1042166,26.0840974 C48.5220572,26.0840974 47.2275632,24.7926934 47.2275632,23.2143108 C47.2275632,21.6359282 48.5220572,20.3445243 50.1042166,20.3445243 C51.686376,20.3445243 52.98087,21.6359282 52.98087,23.2143108 Z M41.0427584,36.7740523 L59.0218421,36.7740523 L59.0218421,39.5720942 L41.0427584,39.5720942 L41.0427584,36.7740523 Z M0.123159122,61.1931377 L5.27008182,52.6173262 L5.27008182,52.4968508 L5.34238721,52.4968508 L5.39262099,52.4131512 L5.55689075,52.4968508 L10.0610653,52.4968508 L14.8520488,52.4968508 L14.8520488,52.5265393 L14.9180035,52.4929337 L20.3012751,61.46255 L19.9624312,61.6351997 L19.9624312,61.1931377 L16.4265814,61.1931377 L14.8520488,58.5696488 L14.8520488,61.1931377 L5.27008182,61.1931377 L5.27008182,58.8039352 L3.83616033,61.1931377 L0.123159122,61.1931377 Z M13.2550543,47.709904 C13.2550543,49.4651178 11.8177592,50.9012019 10.0610653,50.9012019 C8.30437136,50.9012019 6.86707632,49.4651178 6.86707632,47.709904 C6.86707632,45.9546901 8.30437136,44.518606 10.0610653,44.518606 C11.8177592,44.518606 13.2550543,45.9546901 13.2550543,47.709904 Z M-2.3625546e-13,62.7887866 L19.9624312,62.7887866 L19.9624312,65.9003021 L-2.3625546e-13,65.9003021 L-2.3625546e-13,62.7887866 Z M21.9889938,61.1931377 L27.1359165,52.6173262 L27.1359165,52.4968508 L27.2082218,52.4968508 L27.2584556,52.4131512 L27.4227254,52.4968508 L31.9268999,52.4968508 L36.7178834,52.4968508 L36.7178834,52.5265393 L36.7838382,52.4929337 L42.1671097,61.46255 L41.8282658,61.6351997 L41.8282658,61.1931377 L38.292416,61.1931377 L36.7178834,58.5696488 L36.7178834,61.1931377 L27.1359165,61.1931377 L27.1359165,58.8039352 L25.701995,61.1931377 L21.9889938,61.1931377 Z M35.1208889,47.709904 C35.1208889,49.4651178 33.6835939,50.9012019 31.9268999,50.9012019 C30.170206,50.9012019 28.7329109,49.4651178 28.7329109,47.709904 C28.7329109,45.9546901 30.170206,44.518606 31.9268999,44.518606 C33.6835939,44.518606 35.1208889,45.9546901 35.1208889,47.709904 Z M21.8658346,62.7887866 L41.8282658,62.7887866 L41.8282658,65.9003021 L21.8658346,65.9003021 L21.8658346,62.7887866 Z M43.6551404,61.1931377 L48.8020631,52.6173262 L48.8020631,52.4968508 L48.8743685,52.4968508 L48.9246023,52.4131512 L49.088872,52.4968508 L53.5930466,52.4968508 L58.3840301,52.4968508 L58.3840301,52.5265393 L58.4499848,52.4929337 L63.8332564,61.46255 L63.4944124,61.6351997 L63.4944124,61.1931377 L59.9585626,61.1931377 L58.3840301,58.5696488 L58.3840301,61.1931377 L48.8020631,61.1931377 L48.8020631,58.8039352 L47.3681416,61.1931377 L43.6551404,61.1931377 Z M56.7870356,47.709904 C56.7870356,49.4651178 55.3497405,50.9012019 53.5930466,50.9012019 C51.8363526,50.9012019 50.3990576,49.4651178 50.3990576,47.709904 C50.3990576,45.9546901 51.8363526,44.518606 53.5930466,44.518606 C55.3497405,44.518606 56.7870356,45.9546901 56.7870356,47.709904 Z M43.5319813,62.7887866 L63.4944124,62.7887866 L63.4944124,65.9003021 L43.5319813,65.9003021 L43.5319813,62.7887866 Z" id="icon-all-students"></path>
                </g>
            </g>
        </g>
    </g>
</svg>