<?xml version="1.0" encoding="UTF-8"?>
<svg width="64px" height="60px" viewBox="0 0 64 60" version="1.1" xmlns="http://www.w3.org/2000/svg" xmlns:xlink="http://www.w3.org/1999/xlink">
    <!-- Generator: Sketch 52.6 (67491) - http://www.bohemiancoding.com/sketch -->
    <title>icon-ax-spectrum</title>
    <desc>Created with Sketch.</desc>
    <g id="home" stroke="none" stroke-width="1" fill="none" fill-rule="evenodd">
        <g id="1440-ally.ac-courses-he-general" transform="translate(-365.000000, -1739.000000)" fill="#121519">
            <g id="featureAbout" transform="translate(365.000000, 565.000000)">
                <g id="05" transform="translate(0.000000, 1174.000000)">
                    <path d="M23,46.2019856 L43,40.6701408 L43,59.5414881 L23,59.383693 L23,46.2019856 Z M21,46.75517 L21,59.3679135 L-9.05941988e-13,59.2022287 L-9.05941988e-13,52.563607 L21,46.75517 Z M45,40.1169564 L63.5,35 L63.5,59.703228 L45,59.5572676 L45,40.1169564 Z M48.6666667,11.2840067 L48.6666667,19.8520202 L57,19.8520202 L57,34.1320426 L32,41 L32,14.1400112 L40.3333333,14.1400112 L40.3333333,11.2840067 L44.5,7 L48.6666667,11.2840067 Z M35,32 L38,32 L38,29 L35,29 L35,32 Z M35,26 L38,26 L38,23 L35,23 L35,26 Z M35,20 L38,20 L38,17 L35,17 L35,20 Z M43,32 L46,32 L46,29 L43,29 L43,32 Z M43,26 L46,26 L46,23 L43,23 L43,26 Z M43,20 L46,20 L46,17 L43,17 L43,20 Z M43,15 L46,15 L46,12 L43,12 L43,15 Z M51,32 L54,32 L54,29 L51,29 L51,32 Z M51,26 L54,26 L54,23 L51,23 L51,26 Z M47.1333333,0.705882353 L49,0.705882353 L49,4.23529412 L46.6666667,4.23529412 L46.5333333,3.52941176 L44.6666667,3.52941176 L44.6666667,6 L44,6 L44,0 L47,0 L47.1333333,0.705882353 Z M16.440617,26.3237999 L26.1785924,31.439597 L21.1273173,41.1779544 L18.315149,41.9276218 L22.4010942,33.8211904 L9.30808675,37.8241245 L8.62212686,35.5804508 L21.7151344,31.5775167 L13.7946734,27.1418121 L16.440617,26.3237999 Z" id="icon-ax-spectrum"></path>
                </g>
            </g>
        </g>
    </g>
</svg>