<?xml version="1.0" encoding="UTF-8"?>
<svg width="48px" height="60px" viewBox="0 0 48 60" version="1.1" xmlns="http://www.w3.org/2000/svg" xmlns:xlink="http://www.w3.org/1999/xlink">
    <!-- Generator: Sketch 52.6 (67491) - http://www.bohemiancoding.com/sketch -->
    <title>icon-file-tagged-pdf</title>
    <desc>Created with Sketch.</desc>
    <g id="home" stroke="none" stroke-width="1" fill="none" fill-rule="evenodd">
        <g id="1440-ally.ac-courses-he-general" transform="translate(-370.000000, -2689.000000)" fill="#222222">
            <g id="icon-fileTaggedPDF" transform="translate(370.000000, 2688.000000)">
                <path d="M45.7580547,58.5856389 L29.4204167,42.1834677 C28.6854167,41.4455645 27.6645833,40.9946237 26.5416667,40.9946237 L12.25,40.9946237 C10.0041667,40.9946237 8.16666667,42.8393817 8.16666667,45.094086 L8.16666667,59.4422043 C8.16666667,59.7955794 8.21079933,60.1388847 8.29466304,60.4670699 L5.89122917,60.4670699 C2.63477083,60.4670699 3.64153152e-13,57.7921707 3.64153152e-13,54.5228495 L0.0296041667,6.96908602 C0.0296041667,3.69976478 2.664375,1.02486559 5.92083333,1.02486559 L29.6041667,1.02486559 L47.3666667,18.8575269 L47.3666667,54.5228495 C47.3666667,56.0901189 46.7543621,57.5207832 45.7580547,58.5856389 Z M15.3125,51.2432796 C13.6179167,51.2432796 12.25,49.8699597 12.25,48.1686828 C12.25,46.4674059 13.6179167,45.094086 15.3125,45.094086 C17.0070833,45.094086 18.375,46.4674059 18.375,48.1686828 C18.375,49.8699597 17.0070833,51.2432796 15.3125,51.2432796 Z M26.64375,21.8296371 L42.9260417,21.8296371 L26.64375,5.48303091 L26.64375,21.8296371 Z M18.3090385,30.5281838 L18.3090385,28.2991011 C18.3090385,26.4489625 16.8290579,24.9554772 14.995649,24.9554772 L9.47333333,24.9554772 L9.47333333,38.3299731 L12.7867228,38.3299731 L12.7867228,33.8718078 L14.995649,33.8718078 C16.8290579,33.8718078 18.3090385,32.3783224 18.3090385,30.5281838 Z M29.3536699,34.9863491 L29.3536699,28.2991011 C29.3536699,26.4489625 27.8736893,24.9554772 26.0402804,24.9554772 L20.5179647,24.9554772 L20.5179647,38.3299731 L26.0402804,38.3299731 C27.8736893,38.3299731 29.3536699,36.8364877 29.3536699,34.9863491 Z M38.189375,28.2991011 L38.189375,24.9554772 L31.5625962,24.9554772 L31.5625962,38.3299731 L34.8759856,38.3299731 L34.8759856,33.8718078 L38.189375,33.8718078 L38.189375,30.5281838 L34.8759856,30.5281838 L34.8759856,28.2991011 L38.189375,28.2991011 Z M12.7867228,30.5281838 L14.995649,30.5281838 L14.995649,28.2991011 L12.7867228,28.2991011 L12.7867228,30.5281838 Z M23.8313542,34.9863491 L26.0402804,34.9863491 L26.0402804,28.2991011 L23.8313542,28.2991011 L23.8313542,34.9863491 Z" id="icon-filePDF"></path>
            </g>
        </g>
    </g>
</svg>