<?xml version="1.0" encoding="UTF-8"?>
<svg width="49px" height="62px" viewBox="0 0 49 62" version="1.1" xmlns="http://www.w3.org/2000/svg" xmlns:xlink="http://www.w3.org/1999/xlink">
    <!-- Generator: Sketch 52.6 (67491) - http://www.bohemiancoding.com/sketch -->
    <title>icon-file-html</title>
    <desc>Created with Sketch.</desc>
    <g id="home" stroke="none" stroke-width="1" fill="none" fill-rule="evenodd">
        <g id="1440-ally.ac-courses-he-general" transform="translate(-702.000000, -2688.000000)" fill="#222222">
            <g id="icon-fileHTML" transform="translate(702.000000, 2688.000000)">
                <g id="Combined-Shape">
                    <path d="M30.2262368,0.403273248 L48.3619789,18.8315273 L48.3619789,55.6880354 C48.3619789,59.0665486 45.6416176,61.8307867 42.3167315,61.8307867 L6.01502112,61.8307867 C2.69013507,61.8307867 5.5067062e-14,59.0665486 5.5067062e-14,55.6880354 L0.0302262368,6.5460246 C0.0302262368,3.16751135 2.72036131,0.403273248 6.04524736,0.403273248 L30.2262368,0.403273248 Z M27.2036131,21.902903 L43.8280434,21.902903 L27.2036131,5.01033676 L27.2036131,21.902903 Z M22.547586,39.7230627 C20.791671,39.2548623 18.8449006,39.6836667 17.4190571,41.0347327 L13.8190429,44.4459465 C11.6077137,46.541304 11.4867377,50.0614768 13.5488356,52.3084726 C15.6109334,54.5554684 19.0752305,54.6783956 21.2865597,52.5830381 L24.8865739,49.1718242 C26.3124174,47.8207582 26.8691872,45.8773189 26.5320273,44.0647689 L20.0231589,50.232284 C18.8432605,51.3503034 16.9948162,51.2847132 15.8945432,50.0857841 C14.7942701,48.8868551 14.8588192,47.0085972 16.0387176,45.8905778 L22.547586,39.7230627 Z M27.7659764,42.8955335 C29.5218914,43.363734 31.4686618,42.9349296 32.8945053,41.5838636 L36.4945195,38.1726498 C38.7058487,36.0772923 38.8268246,32.5571194 36.7647268,30.3101237 C34.702629,28.0631279 31.2383319,27.9402007 29.0270027,30.0355582 L25.4269885,33.446772 C24.001145,34.7978381 23.4443752,36.7412774 23.7815351,38.5538274 L30.4056951,32.2770671 C31.5855935,31.1590476 33.4340378,31.2246379 34.5343109,32.4235669 C35.6345839,33.622496 35.5700348,35.5007538 34.3901364,36.6187732 L27.7659764,42.8955335 Z M21.5788212,42.3114654 C20.8845478,42.9693281 20.846566,44.0745287 21.4939864,44.7800001 C22.1414068,45.4854714 23.2290645,45.5240659 23.9233379,44.8662032 L28.7347412,40.3071308 C29.4290146,39.6492682 29.4669964,38.5440676 28.819576,37.8385962 C28.1721556,37.1331248 27.0844979,37.0945304 26.3902245,37.7523931 L21.5788212,42.3114654 Z"></path>
                </g>
            </g>
        </g>
    </g>
</svg>