<?xml version="1.0" encoding="UTF-8"?>
<svg width="49px" height="62px" viewBox="0 0 49 62" version="1.1" xmlns="http://www.w3.org/2000/svg" xmlns:xlink="http://www.w3.org/1999/xlink">
    <!-- Generator: Sketch 52.6 (67491) - http://www.bohemiancoding.com/sketch -->
    <title>icon-file-translated</title>
    <desc>Created with Sketch.</desc>
    <g id="home" stroke="none" stroke-width="1" fill="none" fill-rule="evenodd">
        <g id="1440-ally.ac-courses-he-general" transform="translate(-702.000000, -3030.000000)" fill="#222222" fill-rule="nonzero">
            <g id="icon-fileTranslated" transform="translate(702.000000, 3030.000000)">
                <path d="M30.2262369,3.01980663e-14 L6.04524729,3.01980663e-14 C2.72036131,3.01980663e-14 0.0302262292,2.75555131 0.0302262292,6.12344734 L1.95399252e-14,55.1110261 C1.95399252e-14,58.4789221 2.69013508,61.2344734 6.01502104,61.2344734 L42.3167315,61.2344734 C45.6416175,61.2344734 48.361979,58.4789221 48.361979,55.1110261 L48.361979,18.3703421 L30.2262369,3.01980663e-14 Z M27.2036131,21.4320658 L27.2036131,4.59258552 L43.8280433,21.4320658 L27.2036131,21.4320658 Z M23.9427083,25.4166667 C32.5833333,25.4166667 39.5833333,32.5333333 39.5833333,41.3020833 C39.5833333,50.0708333 32.5833333,57.1875 23.9427083,57.1875 C15.3177083,57.1875 8.33333333,50.0708333 8.33333333,41.3020833 C8.33333333,32.5333333 15.3177083,25.4166667 23.9427083,25.4166667 Z M34.7708333,34.9479167 L30.1614583,34.9479167 C29.6614583,32.9622396 28.9427083,31.0559896 28.0052083,29.2927083 C30.8802083,30.2934896 33.2708333,32.3268229 34.7708333,34.9479167 Z M23.9583333,28.6572917 C25.2552083,30.5635417 26.2708333,32.6763021 26.9427083,34.9479167 L20.9739583,34.9479167 C21.6458333,32.6763021 22.6614583,30.5635417 23.9583333,28.6572917 Z M11.8645833,44.4791667 C11.6145833,43.4625 11.4583333,42.3981771 11.4583333,41.3020833 C11.4583333,40.2059896 11.6145833,39.1416667 11.8645833,38.125 L17.1458333,38.125 C17.0208333,39.1734375 16.9270833,40.221875 16.9270833,41.3020833 C16.9270833,42.3822917 17.0208333,43.4307292 17.1458333,44.4791667 L11.8645833,44.4791667 Z M13.1458333,47.65625 L17.7552083,47.65625 C18.2552083,49.6419271 18.9739583,51.5481771 19.9114583,53.3114583 C17.0364583,52.3106771 14.6458333,50.2932292 13.1458333,47.65625 Z M17.7552083,34.9479167 L13.1458333,34.9479167 C14.6458333,32.3109375 17.0364583,30.2934896 19.9114583,29.2927083 C18.9739583,31.0559896 18.2552083,32.9622396 17.7552083,34.9479167 Z M23.9583333,53.946875 C22.6614583,52.040625 21.6458333,49.9278646 20.9739583,47.65625 L26.9427083,47.65625 C26.2708333,49.9278646 25.2552083,52.040625 23.9583333,53.946875 Z M27.6145833,44.4791667 L20.3020833,44.4791667 C20.1614583,43.4307292 20.0520833,42.3822917 20.0520833,41.3020833 C20.0520833,40.221875 20.1614583,39.1575521 20.3020833,38.125 L27.6145833,38.125 C27.7552083,39.1575521 27.8645833,40.221875 27.8645833,41.3020833 C27.8645833,42.3822917 27.7552083,43.4307292 27.6145833,44.4791667 Z M28.0052083,53.3114583 C28.9427083,51.5481771 29.6614583,49.6419271 30.1614583,47.65625 L34.7708333,47.65625 C33.2708333,50.2773438 30.8802083,52.3106771 28.0052083,53.3114583 Z M30.7708333,44.4791667 C30.8958333,43.4307292 30.9895833,42.3822917 30.9895833,41.3020833 C30.9895833,40.221875 30.8958333,39.1734375 30.7708333,38.125 L36.0520833,38.125 C36.3020833,39.1416667 36.4583333,40.2059896 36.4583333,41.3020833 C36.4583333,42.3981771 36.3020833,43.4625 36.0520833,44.4791667 L30.7708333,44.4791667 Z" id="icon"></path>
            </g>
        </g>
    </g>
</svg>