<?xml version="1.0" encoding="UTF-8"?>
<svg width="49px" height="62px" viewBox="0 0 49 62" version="1.1" xmlns="http://www.w3.org/2000/svg" xmlns:xlink="http://www.w3.org/1999/xlink">
    <!-- Generator: Sketch 52.6 (67491) - http://www.bohemiancoding.com/sketch -->
    <title>icon-file-audio</title>
    <desc>Created with Sketch.</desc>
    <g id="home" stroke="none" stroke-width="1" fill="none" fill-rule="evenodd">
        <g id="1440-ally.ac-courses-he-general" transform="translate(-370.000000, -3031.000000)" fill="#222222">
            <g id="icon-fileAudio" transform="translate(370.000000, 3030.000000)">
                <path d="M30.2262368,1.36028126 L48.3619789,19.7885353 L48.3619789,56.6450434 C48.3619789,60.0235566 45.6416176,62.7877947 42.3167315,62.7877947 L6.01502112,62.7877947 C2.69013507,62.7877947 2.66453526e-14,60.0235566 2.66453526e-14,56.6450434 L0.0302262368,7.5030326 C0.0302262368,4.12451936 2.72036131,1.36028126 6.04524736,1.36028126 L30.2262368,1.36028126 Z M33.2488605,34.6539936 L33.2488605,30.2312126 L24.4832518,30.2312126 L24.4832518,42.4159742 C23.5628629,41.7083292 22.4452478,41.288165 21.1961486,41.288165 C18.1720136,41.288165 15.7176431,43.7649224 15.7176431,46.8166412 C15.7176431,49.8683601 18.1720136,52.3451174 21.1961486,52.3451174 C24.2202835,52.3451174 26.674654,49.8683601 26.674654,46.8166412 L26.674654,34.6539936 L33.2488605,34.6539936 Z M27.2036131,22.859911 L27.2036131,5.96734477 L43.8280434,22.859911 L27.2036131,22.859911 Z" id="fileMP3"></path>
            </g>
        </g>
    </g>
</svg>