<?xml version="1.0" encoding="UTF-8"?>
<svg width="56px" height="78px" viewBox="0 0 56 78" version="1.1" xmlns="http://www.w3.org/2000/svg" xmlns:xlink="http://www.w3.org/1999/xlink">
    <!-- Generator: Sketch 52.6 (67491) - http://www.bohemiancoding.com/sketch -->
    <title>icon-proctive</title>
    <desc>Created with Sketch.</desc>
    <g id="home" stroke="none" stroke-width="1" fill="none" fill-rule="evenodd">
        <g id="1440-ally.ac-courses-he-general" transform="translate(-373.000000, -1393.000000)" fill="#121519" fill-rule="nonzero">
            <g id="featureAbout" transform="translate(365.000000, 565.000000)">
                <g id="03" transform="translate(8.000000, 828.000000)">
                    <path d="M27.7925926,10.6350146 C43.3771852,10.6350146 56,23.326132 56,38.9950535 C56,44.5607111 54.3780741,49.7364182 51.6278519,54.0967742 L46.48,48.9210671 C48.0666667,45.9787131 48.9481481,42.5755084 48.9481481,38.9950535 C48.9481481,27.2610874 39.4634074,17.7250243 27.7925926,17.7250243 L27.7925926,28.3600389 L13.6888889,14.1800194 L27.7925926,0 L27.7925926,10.6350146 Z M28.2074074,60.2749757 L28.2074074,49.6399611 L42.3111111,63.8199806 L28.2074074,78 L28.2074074,67.3649854 C12.6228148,67.3649854 0,54.673868 0,39.0049465 C0,33.4392889 1.62192593,28.2635818 4.37214815,23.9032258 L9.52,29.0789329 C7.93333333,32.0212869 7.05185185,35.4244916 7.05185185,39.0049465 C7.05185185,50.7389126 16.5365926,60.2749757 28.2074074,60.2749757 Z M24.1887792,49.3281855 L16.1777778,40.9567815 L19.4050674,37.5843011 L24.1887792,42.5593084 L36.0450618,30.1935484 L39.2723514,33.5660267 L24.1887792,49.3281855 Z" id="icon-proctive"></path>
                </g>
            </g>
        </g>
    </g>
</svg>