<?xml version="1.0" encoding="UTF-8"?>
<svg width="54px" height="54px" viewBox="0 0 54 54" version="1.1" xmlns="http://www.w3.org/2000/svg" xmlns:xlink="http://www.w3.org/1999/xlink">
    <!-- Generator: Sketch 52.6 (67491) - http://www.bohemiancoding.com/sketch -->
    <title>icon-integration</title>
    <desc>Created with Sketch.</desc>
    <g id="home" stroke="none" stroke-width="1" fill="none" fill-rule="evenodd">
        <g id="1440-ally.ac-courses-he-general" transform="translate(-365.000000, -1047.000000)" fill="#121519" fill-rule="nonzero">
            <g id="featureAbout" transform="translate(365.000000, 565.000000)">
                <g id="01" transform="translate(0.000000, 482.000000)">
                    <path d="M28.1704205,39.2261363 L20.8051907,39.2261363 L20.8051907,33.7344772 L26.3168802,33.7344772 C26.3100389,33.8690378 26.3065766,34.0044917 26.3065766,34.1407557 C26.3065766,36.0801361 27.0079155,37.8554485 28.1704205,39.2261363 Z M39.2635472,28.1765557 C37.8905985,26.9953314 36.1051713,26.2815113 34.1532883,26.2815113 C34.0236508,26.2815113 33.8947475,26.2846601 33.7666506,26.2908855 L33.7666506,21.574375 L39.2635472,21.574375 L39.2635472,28.1765557 Z M11.390918,39.2261363 L9.03061585,39.2261363 C4.04314444,39.2261363 0,35.1868442 0,30.2041249 L0,9.02201135 C0,4.03929207 4.04314444,0 9.03061585,0 L30.2329313,0 C35.2204027,0 39.2635472,4.03929207 39.2635472,9.02201135 L39.2635472,12.1601022 L33.7666506,12.1601022 L33.7666506,9.02201135 C33.7666506,7.07225163 32.1845506,5.49165908 30.2329313,5.49165908 L9.03061585,5.49165908 C7.0789966,5.49165908 5.49689661,7.07225163 5.49689661,9.02201135 L5.49689661,30.2041249 C5.49689661,32.1538847 7.0789966,33.7344772 9.03061585,33.7344772 L11.390918,33.7344772 L11.390918,39.2261363 Z M34.1532883,38.8619091 C36.7503399,38.8619091 38.8589162,36.7499649 38.8589162,34.1407557 C38.8589162,31.5315464 36.7503399,29.4196022 34.1532883,29.4196022 C31.5562368,29.4196022 29.4476604,31.5315464 29.4476604,34.1407557 C29.4476604,36.7499649 31.5562368,38.8619091 34.1532883,38.8619091 Z M34.1532883,42 C29.8196691,42 26.3065766,38.4812965 26.3065766,34.1407557 C26.3065766,29.8002149 29.8196691,26.2815113 34.1532883,26.2815113 C38.4869075,26.2815113 42,29.8002149 42,34.1407557 C42,38.4812965 38.4869075,42 34.1532883,42 Z M14.7364528,25.8234443 C16.1094015,27.0046686 17.8948287,27.7184887 19.8467117,27.7184887 C19.9763492,27.7184887 20.1052525,27.7153399 20.2333494,27.7091145 L20.2333494,44.9779887 C20.2333494,46.9277484 21.8154494,48.5083409 23.7670687,48.5083409 L44.9693841,48.5083409 C46.9210034,48.5083409 48.5031034,46.9277484 48.5031034,44.9779887 L48.5031034,23.7958751 C48.5031034,21.8461153 46.9210034,20.2655228 44.9693841,20.2655228 L27.6831198,20.2655228 C27.6899611,20.1309622 27.6934234,19.9955083 27.6934234,19.8592443 C27.6934234,17.9198639 26.9920845,16.1445515 25.8295795,14.7738637 L44.9693841,14.7738637 C49.9568556,14.7738637 54,18.8131558 54,23.7958751 L54,44.9779887 C54,49.9607079 49.9568556,54 44.9693841,54 L23.7670687,54 C18.7795973,54 14.7364528,49.9607079 14.7364528,44.9779887 L14.7364528,25.8234443 Z M19.8467117,15.1380909 C17.2496601,15.1380909 15.1410838,17.2500351 15.1410838,19.8592443 C15.1410838,22.4684536 17.2496601,24.5803978 19.8467117,24.5803978 C22.4437632,24.5803978 24.5523396,22.4684536 24.5523396,19.8592443 C24.5523396,17.2500351 22.4437632,15.1380909 19.8467117,15.1380909 Z M19.8467117,12 C24.1803309,12 27.6934234,15.5187035 27.6934234,19.8592443 C27.6934234,24.1997851 24.1803309,27.7184887 19.8467117,27.7184887 C15.5130925,27.7184887 12,24.1997851 12,19.8592443 C12,15.5187035 15.5130925,12 19.8467117,12 Z" id="icon-integration"></path>
                </g>
            </g>
        </g>
    </g>
</svg>