<?xml version="1.0" encoding="UTF-8"?>
<svg width="54px" height="71px" viewBox="0 0 54 71" version="1.1" xmlns="http://www.w3.org/2000/svg" xmlns:xlink="http://www.w3.org/1999/xlink">
    <!-- Generator: Sketch 52.6 (67491) - http://www.bohemiancoding.com/sketch -->
    <title>icon-checklist</title>
    <desc>Created with Sketch.</desc>
    <g id="home" stroke="none" stroke-width="1" fill="none" fill-rule="evenodd">
        <g id="1440-ally.ac-courses-he-general" transform="translate(-365.000000, -1220.000000)" fill="#121519">
            <g id="featureAbout" transform="translate(365.000000, 565.000000)">
                <g id="02" transform="translate(0.000000, 655.000000)">
                    <path d="M0,60.3180306 L0,11.9474888 C0,8.6619294 2.7,5.97374442 5.99999976,5.97374442 L18.54,5.97374442 C19.8,2.50897266 23.0999998,0 27,0 C30.9000002,0 34.2,2.50897266 35.46,5.97374442 L48.0000002,5.97374442 C51.3,5.97374442 54,8.6619294 54,11.9474888 L54,59.0375144 C47.1194204,66.395343 37.2879,71 26.372093,71 C16.1041058,71 6.79552581,66.9256697 0,60.3180306 Z M30.1730889,8.01355958 C30.1730889,6.27128871 28.745199,4.84579437 27,4.84579437 C25.254801,4.84579437 23.8269111,6.27128871 23.8269111,8.01355958 C23.8269111,9.75583045 25.254801,11.1813248 27,11.1813248 C28.745199,11.1813248 30.1730889,9.75583045 30.1730889,8.01355958 Z M47.0429849,26.0973034 L47.0429849,19.3668667 L22.6238884,19.3668667 L22.6238884,26.0973034 L47.0429849,26.0973034 Z M47.0429849,42.9233951 L47.0429849,36.1929584 L22.6238884,36.1929584 L22.6238884,42.9233951 L47.0429849,42.9233951 Z M47.0429849,59.7494868 L47.0429849,53.0190502 L22.6238884,53.0190502 L22.6238884,59.7494868 L47.0429849,59.7494868 Z M10.159083,56.6978444 L6.27906977,60.5538228 L8.10723914,62.275463 L11.9302326,58.4637622 L15.753226,62.275463 L17.5813953,60.5538228 L13.7013821,56.6978444 L17.5813953,52.8292922 L15.8261524,51.0658797 L11.9302326,54.9376662 L8.0343127,51.0658797 L6.27906977,52.8292922 L10.159083,56.6978444 Z M10.159083,39.2607147 L6.27906977,43.1166932 L8.10723914,44.8383334 L11.9302326,41.0266326 L15.753226,44.8383334 L17.5813953,43.1166932 L13.7013821,39.2607147 L17.5813953,35.3921625 L15.8261524,33.62875 L11.9302326,37.5005366 L8.0343127,33.62875 L6.27906977,35.3921625 L10.159083,39.2607147 Z M10.6352131,27.4012037 L18.8372093,18.1673086 L17.0823056,16.1916204 L10.6352131,23.4358141 L8.03397349,20.5213215 L6.27906977,22.4970109 L10.6352131,27.4012037 Z" id="icon-checklist"></path>
                </g>
            </g>
        </g>
    </g>
</svg>